<mxfile host="Electron" modified="2023-05-04T04:53:31.738Z" agent="Mozilla/5.0 (X11; Linux x86_64) AppleWebKit/537.36 (KHTML, like Gecko) draw.io/21.2.1 Chrome/112.0.5615.87 Electron/24.1.2 Safari/537.36" etag="KJQXqdZcLZ0oeZMOr2IF" version="21.2.1" type="device">
  <diagram name="Page-1" id="jVz-sLXikP3ptBsjTnPt">
    <mxGraphModel dx="1436" dy="730" grid="1" gridSize="10" guides="1" tooltips="1" connect="1" arrows="1" fold="1" page="1" pageScale="1" pageWidth="850" pageHeight="1100" math="0" shadow="0">
      <root>
        <mxCell id="0" />
        <mxCell id="1" parent="0" />
        <mxCell id="gWcYvX46vSKGj1mqd_2J-4" value="Mint Bonds" style="edgeStyle=orthogonalEdgeStyle;rounded=0;orthogonalLoop=1;jettySize=auto;html=1;entryX=0.5;entryY=0;entryDx=0;entryDy=0;" edge="1" parent="1" source="gWcYvX46vSKGj1mqd_2J-1" target="gWcYvX46vSKGj1mqd_2J-3">
          <mxGeometry relative="1" as="geometry" />
        </mxCell>
        <mxCell id="gWcYvX46vSKGj1mqd_2J-1" value="Issuer Role" style="rounded=0;whiteSpace=wrap;html=1;" vertex="1" parent="1">
          <mxGeometry x="100" y="100" width="120" height="60" as="geometry" />
        </mxCell>
        <mxCell id="gWcYvX46vSKGj1mqd_2J-3" value="" style="shape=document;whiteSpace=wrap;html=1;boundedLbl=1;" vertex="1" parent="1">
          <mxGeometry x="100" y="280" width="120" height="80" as="geometry" />
        </mxCell>
        <mxCell id="gWcYvX46vSKGj1mqd_2J-9" style="edgeStyle=orthogonalEdgeStyle;rounded=0;orthogonalLoop=1;jettySize=auto;html=1;entryX=0;entryY=0.5;entryDx=0;entryDy=0;" edge="1" parent="1" source="gWcYvX46vSKGj1mqd_2J-5" target="gWcYvX46vSKGj1mqd_2J-8">
          <mxGeometry relative="1" as="geometry" />
        </mxCell>
        <mxCell id="gWcYvX46vSKGj1mqd_2J-10" value="Buy" style="edgeLabel;html=1;align=center;verticalAlign=middle;resizable=0;points=[];" vertex="1" connectable="0" parent="gWcYvX46vSKGj1mqd_2J-9">
          <mxGeometry x="0.1639" relative="1" as="geometry">
            <mxPoint as="offset" />
          </mxGeometry>
        </mxCell>
        <mxCell id="gWcYvX46vSKGj1mqd_2J-5" value="DEX / CEX" style="rounded=0;whiteSpace=wrap;html=1;" vertex="1" parent="1">
          <mxGeometry x="110" y="460" width="120" height="60" as="geometry" />
        </mxCell>
        <mxCell id="gWcYvX46vSKGj1mqd_2J-7" value="Publicate token on exchange" style="edgeStyle=orthogonalEdgeStyle;rounded=0;orthogonalLoop=1;jettySize=auto;html=1;" edge="1" parent="1" source="gWcYvX46vSKGj1mqd_2J-6" target="gWcYvX46vSKGj1mqd_2J-5">
          <mxGeometry relative="1" as="geometry" />
        </mxCell>
        <mxCell id="gWcYvX46vSKGj1mqd_2J-14" style="edgeStyle=orthogonalEdgeStyle;rounded=0;orthogonalLoop=1;jettySize=auto;html=1;entryX=0;entryY=0.5;entryDx=0;entryDy=0;" edge="1" parent="1" source="gWcYvX46vSKGj1mqd_2J-6" target="gWcYvX46vSKGj1mqd_2J-12">
          <mxGeometry relative="1" as="geometry" />
        </mxCell>
        <mxCell id="gWcYvX46vSKGj1mqd_2J-15" value="Coupon &lt;br&gt;payment" style="edgeLabel;html=1;align=center;verticalAlign=middle;resizable=0;points=[];" vertex="1" connectable="0" parent="gWcYvX46vSKGj1mqd_2J-14">
          <mxGeometry x="-0.1472" y="-1" relative="1" as="geometry">
            <mxPoint as="offset" />
          </mxGeometry>
        </mxCell>
        <mxCell id="gWcYvX46vSKGj1mqd_2J-6" value="Bond Smart Contracts&lt;br&gt;(ERC-20)" style="shape=document;whiteSpace=wrap;html=1;boundedLbl=1;" vertex="1" parent="1">
          <mxGeometry x="110" y="290" width="120" height="80" as="geometry" />
        </mxCell>
        <mxCell id="gWcYvX46vSKGj1mqd_2J-13" value="" style="edgeStyle=orthogonalEdgeStyle;rounded=0;orthogonalLoop=1;jettySize=auto;html=1;" edge="1" parent="1" source="gWcYvX46vSKGj1mqd_2J-8" target="gWcYvX46vSKGj1mqd_2J-12">
          <mxGeometry relative="1" as="geometry" />
        </mxCell>
        <mxCell id="gWcYvX46vSKGj1mqd_2J-8" value="Buyer Role" style="rounded=0;whiteSpace=wrap;html=1;" vertex="1" parent="1">
          <mxGeometry x="410" y="460" width="120" height="60" as="geometry" />
        </mxCell>
        <mxCell id="gWcYvX46vSKGj1mqd_2J-12" value="Wallet" style="whiteSpace=wrap;html=1;rounded=0;" vertex="1" parent="1">
          <mxGeometry x="410" y="300" width="120" height="60" as="geometry" />
        </mxCell>
      </root>
    </mxGraphModel>
  </diagram>
</mxfile>
